<?xml version="1.0" encoding="iso-8859-1"?>
<!-- Generator: Adobe Illustrator 19.0.0, SVG Export Plug-In . SVG Version: 6.00 Build 0)  -->
<svg version="1.1" id="Layer_1" xmlns="http://www.w3.org/2000/svg" xmlns:xlink="http://www.w3.org/1999/xlink" x="0px" y="0px"
	 viewBox="0 0 512 512" style="enable-background:new 0 0 512 512;" xml:space="preserve">
<path style="fill:#ECF1F8;" d="M449.731,498.979c-4.365-34.288-39.984-314.113-44.145-346.813
	c-0.735-5.774-5.648-10.102-11.468-10.102H117.882c-5.82,0-10.733,4.328-11.469,10.102L62.269,498.979
	C61.389,505.883,66.778,512,73.737,512h364.524C445.222,512,450.61,505.883,449.731,498.979z"/>
<path style="fill:#AFCBD8;" d="M208.395,142.064h-90.513c-5.82,0-10.733,4.328-11.469,10.102L62.269,498.979
	C61.389,505.883,66.778,512,73.737,512h288.906C202.319,469.323,126.098,285.517,208.395,142.064z"/>
<polyline style="fill:#FFCA54;" points="178.687,389.806 435.834,389.806 427.844,327.033 84.155,327.033 76.165,389.806 
	150.414,389.806 "/>
<path style="fill:#F9B24B;" d="M84.155,327.033l-7.99,62.772c4.686,0,125.239,0,130.27,0
	c-10.777-19.493-19.054-40.562-24.398-62.772H84.155z"/>
<polygon style="fill:#FF4B4E;" points="84.155,327.033 427.844,327.033 419.853,264.259 92.146,264.259 "/>
<path style="fill:#EF3F48;" d="M175.051,264.259H92.146c-0.158,1.239-7.838,61.573-7.991,62.774h97.882
	C177.209,306.967,174.77,286.063,175.051,264.259z"/>
<path style="fill:#6C98A8;" d="M343.265,187.262c-4.621,0-8.37-3.747-8.37-8.37V85.309c0-37.81-30.758-68.569-68.565-68.569h-20.658
	c-37.809,0-68.568,30.76-68.568,68.569v93.583c0,4.623-3.747,8.37-8.37,8.37s-8.37-3.747-8.37-8.37V85.309
	C160.363,38.269,198.632,0,245.671,0h20.658c47.037,0,85.306,38.269,85.306,85.309v93.583
	C351.635,183.515,347.888,187.262,343.265,187.262z"/>
<g>
</g>
<g>
</g>
<g>
</g>
<g>
</g>
<g>
</g>
<g>
</g>
<g>
</g>
<g>
</g>
<g>
</g>
<g>
</g>
<g>
</g>
<g>
</g>
<g>
</g>
<g>
</g>
<g>
</g>
</svg>
