<?xml version="1.0" encoding="iso-8859-1"?>
<!-- Generator: Adobe Illustrator 19.0.0, SVG Export Plug-In . SVG Version: 6.00 Build 0)  -->
<svg version="1.1" id="Layer_1" xmlns="http://www.w3.org/2000/svg" xmlns:xlink="http://www.w3.org/1999/xlink" x="0px" y="0px"
	 viewBox="0 0 512 512" style="enable-background:new 0 0 512 512;" xml:space="preserve">
<g>
	<path style="fill:#808080;" d="M220.876,147.955c-0.534,0-1.071-0.031-1.609-0.097c-48.76-5.866-84.514-24.557-106.271-55.556
		c-17.66-25.165-8.006-52.681,10.655-66.857c18.636-14.155,47.689-16.069,67.164,7.658c36.24,44.147,43.144,97.502,43.42,99.751
		c0.503,4.107-0.91,8.216-3.832,11.147C227.865,146.547,224.428,147.955,220.876,147.955z M153.949,41.86
		c-5.224,0-10.192,2.123-14.011,5.023c-7.802,5.925-13.769,17.326-4.906,29.954c14.412,20.533,37.438,34.327,68.596,41.141
		c-4.683-17.419-14.442-44.433-33.62-67.794C165.044,44.137,159.358,41.86,153.949,41.86z"/>
	<path style="fill:#808080;" d="M291.124,147.955c-3.554,0-6.989-1.408-9.529-3.955c-2.922-2.93-4.336-7.041-3.83-11.148
		c0.276-2.249,7.192-55.602,43.417-99.747c19.48-23.734,48.542-21.816,67.176-7.654c18.66,14.178,28.309,41.694,10.643,66.853
		c-21.758,30.997-57.514,49.69-106.27,55.555C292.197,147.924,291.658,147.955,291.124,147.955z M358.054,41.859
		c-5.413,0-11.096,2.278-16.061,8.325c-19.169,23.359-28.931,50.374-33.618,67.793c31.156-6.814,54.181-20.609,68.595-41.141
		c8.864-12.625,2.901-24.023-4.898-29.95C368.253,43.984,363.279,41.859,358.054,41.859z"/>
</g>
<g>
	<path style="fill:#F95428;" d="M512,150.094v89.408h-24.148H24.148H0v-89.408c0-8.615,6.983-15.598,15.598-15.598h480.802
		C505.017,134.494,512,141.479,512,150.094z"/>
	<path style="fill:#F95428;" d="M487.852,221.342v254.043c0,11.946-9.684,21.63-21.63,21.63H45.778
		c-11.946,0-21.63-9.684-21.63-21.63V221.342H487.852z"/>
</g>
<polygon style="fill:#E54728;" points="487.852,239.5 487.852,275.842 465.981,275.842 46.019,275.842 24.148,275.842 24.148,239.5 
	"/>
<path id="SVGCleanerId_0" style="fill:#666666;" d="M291.125,116.807v380.207h-70.251V116.807c0-18.589,15.062-33.651,33.651-33.651
	h2.948C276.063,83.156,291.125,98.218,291.125,116.807z"/>
<g>
	<path id="SVGCleanerId_0_1_" style="fill:#666666;" d="M291.125,116.807v380.207h-70.251V116.807
		c0-18.589,15.062-33.651,33.651-33.651h2.948C276.063,83.156,291.125,98.218,291.125,116.807z"/>
</g>
<rect x="220.875" y="239.504" style="fill:#4D4D4D;" width="70.251" height="36.344"/>
<g>
</g>
<g>
</g>
<g>
</g>
<g>
</g>
<g>
</g>
<g>
</g>
<g>
</g>
<g>
</g>
<g>
</g>
<g>
</g>
<g>
</g>
<g>
</g>
<g>
</g>
<g>
</g>
<g>
</g>
</svg>
