<?xml version="1.0" encoding="iso-8859-1"?>
<!-- Generator: Adobe Illustrator 19.0.0, SVG Export Plug-In . SVG Version: 6.00 Build 0)  -->
<svg version="1.1" id="Layer_1" xmlns="http://www.w3.org/2000/svg" xmlns:xlink="http://www.w3.org/1999/xlink" x="0px" y="0px"
	 viewBox="0 0 511.999 511.999" style="enable-background:new 0 0 511.999 511.999;" xml:space="preserve">
<path style="fill:#FFCA54;" d="M242.265,217.542L81.608,380.692c-5.899,5.993-5.899,15.713,0,21.708l22.234,22.577
	c5.902,5.995,15.476,5.995,21.377,0c3.7-3.757,154.354-156.747,160.657-163.148L242.265,217.542z"/>
<path style="fill:#FC883A;" d="M219.18,240.985c0.279,0.283,43.316,44.038,43.653,44.244l23.043-23.399l-43.611-44.288
	L219.18,240.985z"/>
<path style="fill:#F99830;" d="M293.304,159.037c-3.274-12.333-2.084-39.664,25.854-54.838c12.518-6.799,10.473-11.193,4.403-24.237
	c-5.962-12.811-14.971-32.169,6.636-51.265c3.359-2.97,8.488-2.653,11.458,0.707c2.968,3.36,2.653,8.49-0.706,11.459
	c-11.968,10.575-9.145,18.331-2.668,32.249c5.794,12.453,14.555,31.271-11.374,45.355c-10.068,5.469-16.118,13.283-17.979,23.222
	c-1.358,7.258,0.054,13.127,0.068,13.183c1.149,4.334-1.431,8.778-5.766,9.929C298.897,165.95,294.452,163.367,293.304,159.037z"/>
<ellipse style="fill:#00CDB3;" cx="460.73" cy="116.575" rx="17.331" ry="17.598"/>
<ellipse style="fill:#FF4B4E;" cx="493.142" cy="62.562" rx="12.266" ry="12.457"/>
<path style="fill:#57BAE5;" d="M379.539,259.433c-6.775,0-12.266-5.579-12.266-12.46c0-6.879,5.489-12.456,12.266-12.458
	c6.773,0.002,12.268,5.578,12.268,12.455C391.805,253.854,386.312,259.433,379.539,259.433z"/>
<path style="fill:#FF4B4E;" d="M281.855,84c-6.773,0.001-12.268-5.577-12.268-12.457s5.493-12.457,12.27-12.458
	c6.77,0.001,12.266,5.578,12.266,12.457C294.122,78.423,288.631,84.001,281.855,84z"/>
<path style="fill:#57BAE5;" d="M384.133,58.179c-4.46-0.451-7.712-4.433-7.258-8.893l1.921-19.021
	c0.45-4.461,4.436-7.711,8.892-7.261c4.461,0.451,7.711,4.432,7.262,8.893l-1.922,19.022
	C392.581,55.329,388.657,58.624,384.133,58.179z"/>
<path style="fill:#00CDB3;" d="M259.715,144.35l-4.787-18.494c-1.123-4.341,1.487-8.769,5.826-9.893
	c4.336-1.125,8.77,1.485,9.893,5.825l4.786,18.494c1.122,4.341-1.486,8.77-5.826,9.893
	C265.265,151.298,260.837,148.69,259.715,144.35z"/>
<path style="fill:#BAD8E8;" d="M8.855,511.986c-4.484-0.104-8.031-3.822-7.928-8.306c0.106-4.481,3.842-8.02,8.307-7.925
	c0.047,0.014,8.338,0.056,16.942-4.105c10.893-5.265,17.472-14.906,19.547-28.654c2.103-13.891,10.095-26.884,21.931-35.65
	c3.603-2.669,8.687-1.91,11.354,1.692c2.668,3.602,1.911,8.686-1.691,11.354c-3.98,2.948-13.462,11.286-15.54,25.03
	C56.986,497.14,31.859,512.518,8.855,511.986z"/>
<path style="fill:#F99830;" d="M323.909,171.973c-1.471-4.23,0.762-8.851,4.985-10.329c0.702-0.251,49.011-18.003,68.828-73.556
	c18.083-50.695,57.733-81.303,104.07-88.004c4.44-0.638,8.555,2.436,9.197,6.873c0.641,4.437-2.436,8.554-6.873,9.196
	c-42.547,6.15-75.751,34.357-91.102,77.389c-22.56,63.239-76.486,82.636-78.771,83.43
	C330.012,178.446,325.385,176.209,323.909,171.973z"/>
<path style="fill:#FF4B4E;" d="M319.874,236.054L319.874,236.054c-23.343-23.699-0.93-0.415-51.779-52.509
	c-6.502-6.659-10.364-1.92-12.038,1.31l-0.982,2.328v0.001l-12.81,30.358l43.611,44.288l29.975-13.725
	C326.432,243.257,319.874,236.054,319.874,236.054z"/>
<path style="fill:#F99830;" d="M101.255,400.897L261.91,237.745l23.839,24.21l0.127-0.126l-43.611-44.288L81.608,380.692
	c-5.899,5.993-5.899,15.713,0,21.708l18.223,18.503C95.417,414.891,95.882,406.354,101.255,400.897z"/>
<polygon style="fill:#EF7A2B;" points="261.911,237.746 285.75,261.956 285.877,261.83 242.265,217.542 219.18,240.985 
	238.953,261.064 "/>
<path style="fill:#EF3F48;" d="M274.722,207.388L274.722,207.388l0.981-2.328c1.673-3.231,5.535-7.968,12.038-1.31
	c32.217,33.006,26.443,27.131,33.2,33.875c-1.354-2.511,1.001,1.087-52.848-54.08c-6.502-6.659-10.364-1.92-12.038,1.31
	l-0.982,2.328v0.001l-12.81,30.358l19.723,20.028L274.722,207.388z"/>
<path style="fill:#F99830;" d="M509.114,170.986c-2.736-3.553-7.832-4.216-11.386-1.481c-18.592,14.312-31.864,8.944-47.232,2.725
	c-15.828-6.402-35.522-14.37-55.864,9.562c-20.916,24.603-37.721,18.337-38.425,18.06l0.141,0.059l-0.064,0.143l-0.076-0.202
	c-16.83-6.738-22.013,17.105,6.127,17.105c10.804,0,27.342-4.266,44.67-24.648c12.751-15,22.028-11.245,37.402-5.027
	c16.601,6.715,37.262,15.075,63.226-4.911C511.185,179.636,511.85,174.539,509.114,170.986z"/>
<g>
</g>
<g>
</g>
<g>
</g>
<g>
</g>
<g>
</g>
<g>
</g>
<g>
</g>
<g>
</g>
<g>
</g>
<g>
</g>
<g>
</g>
<g>
</g>
<g>
</g>
<g>
</g>
<g>
</g>
</svg>
