<?xml version="1.0" encoding="iso-8859-1"?>
<!-- Generator: Adobe Illustrator 19.0.0, SVG Export Plug-In . SVG Version: 6.00 Build 0)  -->
<svg version="1.1" id="Layer_1" xmlns="http://www.w3.org/2000/svg" xmlns:xlink="http://www.w3.org/1999/xlink" x="0px" y="0px"
	 viewBox="0 0 512 512" style="enable-background:new 0 0 512 512;" xml:space="preserve">
<circle style="fill:#F2F2F2;" cx="256.002" cy="256.002" r="237.838"/>
<g>
	<path style="fill:#EF5959;" d="M185.65,358.356c-14.892-14.892-42.194,21.544-65.721-1.986
		c-14.793-14.793-7.149-32.564,4.269-43.98c5.857-5.857,20.253-17.473,26.804-10.921c2.284,2.284,5.263,8.438,1.688,12.014
		c-3.078,3.078-9.134,1.588-17.473,9.928c-7.149,7.149-8.34,14.096-3.575,18.863c12.31,12.31,39.91-23.827,65.623,1.886
		c14.197,14.197,11.616,31.472-2.084,45.172c-13.006,13.006-29.486,16.381-35.244,10.623c-2.78-2.78-4.369-9.531-1.291-12.609
		c4.071-4.071,14.396,0.894,24.522-9.232C189.126,372.157,191.607,364.313,185.65,358.356z"/>
	<path style="fill:#EF5959;" d="M224.269,347.734c-0.198-0.198-0.495-0.694-0.794-1.192l-43.286-81.606
		c-2.084-3.871,0.199-8.935,3.872-12.608c3.773-3.773,8.836-6.056,12.707-3.972l81.606,43.286c0.496,0.299,0.894,0.496,1.192,0.794
		c3.078,3.078,0.695,10.028-2.779,13.502c-2.184,2.184-4.567,3.177-6.95,1.787l-16.977-9.431l-22.735,22.735l9.431,16.977
		c1.39,2.383,0.397,4.766-1.787,6.95C234.296,348.43,227.445,350.911,224.269,347.734z M239.955,290.947l-39.116-21.841
		l21.841,39.115L239.955,290.947z"/>
	<path style="fill:#EF5959;" d="M305.38,277.346c-2.879,2.879-7.049,4.27-9.73,1.588l-64.531-64.531
		c-2.78-2.78-0.794-7.149,2.481-10.424c3.177-3.177,7.644-5.263,10.424-2.481l57.283,57.283l24.224-24.224
		c2.581-2.581,6.651-1.093,9.53,1.787c2.779,2.779,4.369,6.949,1.787,9.53L305.38,277.346z"/>
	<path style="fill:#EF5959;" d="M327.221,172.707l15.09-15.091c2.581-2.581,6.552-1.588,9.233,1.092
		c2.284,2.284,3.673,6.256,0.894,9.035l-15.09,15.09l19.954,19.954l28.096-28.096c2.581-2.581,6.75-1.391,9.828,1.687
		c2.68,2.68,4.27,6.85,1.489,9.63l-35.343,35.343c-2.879,2.879-7.049,4.27-9.73,1.588l-64.431-64.431
		c-2.681-2.681-1.291-6.851,1.588-9.73l35.343-35.343c2.78-2.78,6.949-1.192,9.63,1.489c3.077,3.077,4.269,7.247,1.687,9.828
		l-28.096,28.096L327.221,172.707z"/>
</g>
<path style="fill:#32A8EA;" d="M256.001,512c-68.38,0-132.667-26.629-181.02-74.981S0,324.38,0,255.999
	S26.629,123.332,74.981,74.981C123.332,26.629,187.62,0,256.001,0s132.667,26.629,181.018,74.981
	C485.371,123.334,512,187.621,512,256.001s-26.629,132.667-74.981,181.02S324.38,512,256.001,512z M256.001,39.553
	c-119.35,0-216.448,97.097-216.448,216.446s97.097,216.446,216.448,216.446c119.349,0,216.446-97.097,216.446-216.446
	S375.35,39.553,256.001,39.553z"/>
<g>
</g>
<g>
</g>
<g>
</g>
<g>
</g>
<g>
</g>
<g>
</g>
<g>
</g>
<g>
</g>
<g>
</g>
<g>
</g>
<g>
</g>
<g>
</g>
<g>
</g>
<g>
</g>
<g>
</g>
</svg>
