<?xml version="1.0" encoding="iso-8859-1"?>
<!-- Generator: Adobe Illustrator 19.0.0, SVG Export Plug-In . SVG Version: 6.00 Build 0)  -->
<svg version="1.1" id="Layer_1" xmlns="http://www.w3.org/2000/svg" xmlns:xlink="http://www.w3.org/1999/xlink" x="0px" y="0px"
	 viewBox="0 0 512 512" style="enable-background:new 0 0 512 512;" xml:space="preserve">
<path style="fill:#009E2F;" d="M370.824,434.677H220.996c-4.329,0-7.837-3.508-7.837-7.837c0-4.328,3.508-7.837,7.837-7.837h149.828
	c4.329,0,7.837,3.509,7.837,7.837C378.661,431.169,375.152,434.677,370.824,434.677z"/>
<path style="fill:#FFCB00;" d="M245.078,95.638V36.014c0-2.965-2.425-5.392-5.39-5.392h-78.642c-2.964,0-5.39,2.426-5.39,5.392
	v59.624H245.078z"/>
<path style="opacity:0.1;enable-background:new    ;" d="M178.435,95.638V36.014c0-2.965,2.425-5.392,5.39-5.392h-22.779
	c-2.964,0-5.39,2.426-5.39,5.392v59.624H178.435z"/>
<path style="fill:#0079F1;" d="M325.983,95.638V61.004c0-2.965-2.425-5.392-5.39-5.392H241.95c-2.964,0-5.39,2.426-5.39,5.392
	v34.634H325.983z"/>
<path style="opacity:0.1;enable-background:new    ;" d="M259.277,95.638V61.004c0-2.965,2.425-5.392,5.39-5.392H241.95
	c-2.964,0-5.39,2.426-5.39,5.392v34.634H259.277z"/>
<path style="fill:#F39600;" d="M404.76,95.638V42.853c0-2.965-2.425-5.392-5.39-5.392h-78.643c-2.964,0-5.39,2.426-5.39,5.392
	v52.786h89.422V95.638z"/>
<path style="opacity:0.1;enable-background:new    ;" d="M339.041,95.638V42.853c0-2.965,2.425-5.392,5.39-5.392h-23.704
	c-2.964,0-5.39,2.426-5.39,5.392v52.786h23.703V95.638z"/>
<path style="fill:#E9510F;" d="M483.536,95.638V23.053c0-2.966-2.425-5.393-5.39-5.393h-78.643c-2.964,0-5.39,2.426-5.39,5.393
	v72.585C394.114,95.638,483.536,95.638,483.536,95.638z"/>
<path style="opacity:0.1;enable-background:new    ;" d="M417.728,95.638V23.053c0-2.966,2.425-5.393,5.39-5.393h-23.614
	c-2.964,0-5.39,2.426-5.39,5.393v72.585C394.115,95.638,417.728,95.638,417.728,95.638z"/>
<ellipse style="fill:#BFBFBF;" cx="193.776" cy="447.32" rx="46.895" ry="47.019"/>
<ellipse style="fill:#737373;" cx="193.776" cy="447.32" rx="23.688" ry="23.753"/>
<path style="fill:#35D34F;" d="M219.203,392.271c2.964,0,4.18,2.102,2.699,4.673l-25.438,44.176c-1.481,2.569-3.901,2.569-5.381,0
	l-25.437-44.176c-1.48-2.57-0.265-4.673,2.699-4.673L219.203,392.271L219.203,392.271z"/>
<path style="opacity:0.1;enable-background:new    ;" d="M182.946,396.944c-1.481-2.57-0.265-4.673,2.699-4.673h-17.299
	c-2.964,0-4.179,2.102-2.699,4.673l25.437,44.176c1.48,2.569,3.901,2.569,5.381,0l5.959-10.349L182.946,396.944z"/>
<ellipse style="fill:#BFBFBF;" cx="398.503" cy="447.32" rx="46.894" ry="47.019"/>
<ellipse style="fill:#737373;" cx="398.503" cy="447.32" rx="23.689" ry="23.753"/>
<path style="fill:#35D34F;" d="M423.937,392.271c2.964,0,4.18,2.102,2.699,4.673l-25.437,44.176c-1.481,2.569-3.901,2.569-5.381,0
	l-25.437-44.176c-1.481-2.57-0.265-4.673,2.699-4.673L423.937,392.271L423.937,392.271z"/>
<path style="opacity:0.1;enable-background:new    ;" d="M387.746,396.944c-1.48-2.57-0.265-4.673,2.699-4.673H373.08
	c-2.964,0-4.18,2.102-2.699,4.673l25.437,44.176c1.481,2.569,3.901,2.569,5.381,0l5.991-10.406L387.746,396.944z"/>
<path style="fill:#009E2F;" d="M444.082,384.434H132.203c-9.58,0-17.374-7.823-17.374-17.438c0-9.617,7.794-17.441,17.374-17.441
	h309.789c4.328,0,7.837-3.508,7.837-7.837c0-4.329-3.509-7.837-7.837-7.837H177.088c-7.1,0-13.294-5.068-14.728-12.05L109.128,61.06
	c-0.44-13.422-11.476-24.205-24.978-24.205H64.784v15.673H84.15c5.139,0,9.318,4.202,9.318,9.365
	c0,0.508,53.54,263.088,53.54,263.088c0.654,3.187,1.798,6.175,3.338,8.899h-18.144c-18.222,0-33.047,14.855-33.047,33.115
	c0,18.259,14.825,33.112,33.047,33.112h311.879c4.328,0,7.837-3.508,7.837-7.837C451.918,387.942,448.41,384.434,444.082,384.434z"
	/>
<path style="fill:#FFCB00;" d="M444.153,318.781c2.964,0,5.898-2.374,6.519-5.273l44.063-205.606
	c0.622-2.899-1.296-5.273-4.259-5.273H138.481c-2.964,0-4.881,2.373-4.26,5.273l44.063,205.606c0.622,2.899,3.555,5.273,6.519,5.273
	H444.153z"/>
<path style="fill:#FDF900;" d="M464.084,250.926l3.359-15.673h-53.522l3.163-27.904h56.339l3.358-15.673h-57.921l3.163-27.906
	h60.738l3.359-15.673H423.8l5.079-44.815c0.025-0.219,0.034-0.436,0.041-0.652h-15.74l-5.155,45.467H350.72V102.63h-15.673v45.467
	h-49.1V102.63h-15.673v45.467h-56.748l-6.698-45.467h-15.843l6.699,45.467h-54.847l3.359,15.673h53.797l4.111,27.906h-51.927
	l3.358,15.673h50.877l4.111,27.904h-49.008l3.359,15.673h47.958l4.112,27.906h-46.088l3.358,15.673h45.039l3.576,24.275h15.843
	l-3.576-24.275h35.179v24.275h15.673v-24.275h49.1v24.275h15.673v-24.275h40.711l-2.751,24.275h15.774l2.751-24.275h47.54
	l3.358-15.673h-49.122l3.163-27.906h51.94V250.926z M270.273,278.834h-37.489l-4.111-27.906h41.599V278.834z M270.273,235.253
	h-43.908l-4.111-27.904h48.019v27.904H270.273z M270.273,191.676h-50.329l-4.111-27.906h54.439V191.676z M335.047,278.834h-49.1
	v-27.906h49.1V278.834z M335.047,235.253h-49.1v-27.904h49.1V235.253z M335.047,191.676h-49.1v-27.906h49.1V191.676z
	 M393.208,278.834H350.72v-27.906h45.651L393.208,278.834z M398.148,235.253H350.72v-27.904h50.591L398.148,235.253z
	 M403.087,191.676H350.72v-27.906h55.531L403.087,191.676z"/>
<path style="opacity:0.1;enable-background:new    ;" d="M201.361,313.509l-44.063-205.606c-0.622-2.899,1.296-5.273,4.259-5.273
	h-23.076c-2.964,0-4.881,2.373-4.26,5.273l44.063,205.606c0.622,2.899,3.555,5.273,6.519,5.273h23.077
	C204.916,318.781,201.983,316.408,201.361,313.509z"/>
<path style="fill:#35D34F;" d="M75.49,48.122c0,5.932-4.85,10.784-10.778,10.784H10.779C4.85,58.907,0,54.053,0,48.122v-4.568
	C0,37.622,4.85,32.77,10.779,32.77h53.931c5.928,0,10.778,4.854,10.778,10.784v4.568H75.49z"/>
<path style="opacity:0.1;enable-background:new    ;" d="M23.175,48.122v-4.568c0-5.932,4.851-10.784,10.779-10.784H10.779
	C4.85,32.769,0,37.622,0,43.554v4.568c0,5.932,4.85,10.784,10.779,10.784h23.175C28.025,58.907,23.175,54.053,23.175,48.122z"/>
<path style="fill:#35D34F;" d="M501.221,89.897H133.747v26.615h367.474c5.929,0,10.779-4.854,10.779-10.784v-5.045
	C512,94.751,507.15,89.897,501.221,89.897z"/>
<path style="opacity:0.1;enable-background:new    ;" d="M170.318,105.727v-5.045c0-5.932,4.85-10.784,10.779-10.784h-47.351v26.615
	h47.351C175.169,116.512,170.318,111.658,170.318,105.727z"/>
<ellipse style="fill:#35D34F;" cx="111.898" cy="103.204" rx="34.866" ry="34.886"/>
<ellipse style="fill:#009E2F;" cx="111.898" cy="103.204" rx="13.493" ry="13.5"/>
<g>
</g>
<g>
</g>
<g>
</g>
<g>
</g>
<g>
</g>
<g>
</g>
<g>
</g>
<g>
</g>
<g>
</g>
<g>
</g>
<g>
</g>
<g>
</g>
<g>
</g>
<g>
</g>
<g>
</g>
</svg>
