<?xml version="1.0" encoding="iso-8859-1"?>
<!-- Generator: Adobe Illustrator 19.0.0, SVG Export Plug-In . SVG Version: 6.00 Build 0)  -->
<svg version="1.1" id="Layer_1" xmlns="http://www.w3.org/2000/svg" xmlns:xlink="http://www.w3.org/1999/xlink" x="0px" y="0px"
	 viewBox="0 0 512 512" style="enable-background:new 0 0 512 512;" xml:space="preserve">
<path style="fill:#FEDA44;" d="M358.4,364.723c-42.001,0-84.001-15.987-115.976-47.963c-23.726-23.726-55.27-36.792-88.824-36.792
	s-65.098,13.066-88.823,36.792L32,349.539V60.063l5.624-5.624c63.949-63.95,168.004-63.95,231.953,0
	c23.726,23.726,55.27,36.792,88.824,36.792s65.097-13.066,88.824-36.792L480,21.661v289.476l-5.624,5.624
	C442.401,348.736,400.401,364.723,358.4,364.723z"/>
<path style="fill:#FECE00;" d="M447.224,54.438c-23.727,23.726-55.27,36.792-88.824,36.792s-65.097-13.066-88.824-36.792
	c-4.347-4.347-8.884-8.388-13.576-12.143v286.609c29.824,23.873,66.108,35.82,102.4,35.82c42.001,0,84.001-15.987,115.976-47.963
	l5.624-5.624V21.661L447.224,54.438z"/>
<g>
	<rect x="32" style="fill:#FE0B37;" width="38.4" height="512"/>
	<path style="fill:#FE0B37;" d="M198.596,89.6v108.756h-29.87v-42.583h-36.457v42.583H102.4V89.6h29.87v40.133h36.457V89.6H198.596z
		"/>
	<path style="fill:#FE0B37;" d="M263.391,244.732c-7.762,0-14.834-1.582-21.215-4.749c-6.383-3.164-11.848-7.327-16.39-12.484
		c-4.545-5.155-8.069-11.053-10.569-17.692c-2.504-6.637-3.753-13.48-3.753-20.526c0-7.146,1.302-14.039,3.907-20.678
		c2.604-6.637,6.254-12.484,10.952-17.54c4.696-5.055,10.237-9.088,16.62-12.101c6.381-3.012,13.403-4.518,21.062-4.518
		c7.761,0,14.833,1.585,21.216,4.749c6.381,3.167,11.845,7.352,16.39,12.561c4.543,5.208,8.042,11.132,10.492,17.769
		c2.451,6.639,3.677,13.43,3.677,20.374c0,7.149-1.303,14.016-3.907,20.603c-2.605,6.587-6.204,12.407-10.799,17.463
		c-4.595,5.055-10.109,9.114-16.543,12.178C278.095,243.2,271.049,244.732,263.391,244.732z M241.792,189.587
		c0,3.676,0.433,7.226,1.302,10.646c0.867,3.423,2.221,6.46,4.059,9.115c1.838,2.656,4.136,4.801,6.893,6.433
		c2.757,1.635,5.974,2.451,9.65,2.451c3.777,0,7.046-0.842,9.804-2.528c2.757-1.684,5.002-3.88,6.74-6.587
		c1.734-2.705,3.036-5.795,3.905-9.267c0.867-3.47,1.303-6.993,1.303-10.569c0-3.676-0.46-7.223-1.379-10.646
		c-0.919-3.42-2.273-6.433-4.059-9.038c-1.788-2.605-4.059-4.696-6.816-6.281c-2.757-1.582-5.974-2.374-9.65-2.374
		c-3.78,0-7.022,0.819-9.727,2.451c-2.707,1.635-4.955,3.805-6.74,6.51c-1.787,2.707-3.117,5.77-3.982,9.19
		C242.226,182.516,241.792,186.013,241.792,189.587z"/>
</g>
<g>
	<path style="fill:#C60024;" d="M425.32,211.684h-31.249V294.4h-29.87v-82.716H332.8v-26.04h92.52V211.684z"/>
	<rect x="51.2" style="fill:#C60024;" width="19.2" height="512"/>
	<path style="fill:#C60024;" d="M312.101,169.521c-2.451-6.637-5.949-12.561-10.492-17.769c-4.545-5.208-10.01-9.394-16.39-12.561
		c-6.383-3.164-13.455-4.748-21.216-4.748c-0.109,0-0.215,0.008-0.323,0.008v26.495c3.619,0.019,6.792,0.809,9.514,2.371
		c2.757,1.585,5.028,3.676,6.816,6.281c1.786,2.604,3.14,5.618,4.059,9.038c0.919,3.423,1.379,6.97,1.379,10.646
		c0,3.576-0.435,7.099-1.302,10.569c-0.869,3.473-2.171,6.564-3.905,9.267c-1.738,2.707-3.983,4.902-6.741,6.587
		c-2.757,1.684-6.026,2.528-9.803,2.528c-0.005,0-0.012,0-0.017,0v26.493c7.546-0.038,14.497-1.563,20.85-4.589
		c6.433-3.063,11.948-7.123,16.543-12.178c4.595-5.055,8.195-10.876,10.799-17.463c2.604-6.587,3.907-13.454,3.907-20.603
		C315.779,182.95,314.552,176.16,312.101,169.521z"/>
</g>
<g>
</g>
<g>
</g>
<g>
</g>
<g>
</g>
<g>
</g>
<g>
</g>
<g>
</g>
<g>
</g>
<g>
</g>
<g>
</g>
<g>
</g>
<g>
</g>
<g>
</g>
<g>
</g>
<g>
</g>
</svg>
