<?xml version="1.0" encoding="iso-8859-1"?>
<!-- Generator: Adobe Illustrator 19.0.0, SVG Export Plug-In . SVG Version: 6.00 Build 0)  -->
<svg version="1.1" id="Layer_1" xmlns="http://www.w3.org/2000/svg" xmlns:xlink="http://www.w3.org/1999/xlink" x="0px" y="0px"
	 viewBox="0 0 512 512" style="enable-background:new 0 0 512 512;" xml:space="preserve">
<path style="fill:#40596B;" d="M289.067,86.4v37.333c0,19.2-16,35.2-35.2,35.2l0,0c-19.2,0-35.2-16-35.2-35.2V86.4h-54.4v100.267
	H342.4V86.4H289.067z"/>
<path style="fill:#FF7058;" d="M330.667,178.133H176c-32,0-62.933,17.067-80,43.733L19.2,344.533
	c-9.6,14.933-13.867,32-13.867,50.133v2.133c0,52.267,41.6,93.867,93.867,93.867h318.933c52.267,0,93.867-41.6,93.867-93.867l0,0
	c0-19.2-6.4-38.4-17.067-53.333l-87.467-124.8C390.4,193.067,361.6,178.133,330.667,178.133z"/>
<path style="fill:#F1543F;" d="M19.2,446.933c17.067,26.667,45.867,44.8,80,44.8h318.933c34.133,0,62.933-18.133,80-44.8H19.2z"/>
<path style="fill:#FF7058;" d="M506.667,155.733c-3.2,25.6-23.467,46.933-49.067,49.067c-28.8,3.2-57.6-6.4-57.6-6.4
	c-26.667-11.733-28.8-45.867-27.733-61.867c0-5.333,1.067-8.533,1.067-8.533c-3.2-34.133-119.467-32-119.467-32
	S137.6,93.867,134.4,128c0,0,0,3.2,1.067,8.533c1.067,16-1.067,50.133-27.733,61.867c0,0-28.8,9.6-57.6,6.4
	c-25.6-2.133-45.867-23.467-49.067-49.067C0,149.333,0,140.8,0,131.2c0-5.333,1.067-10.667,1.067-16c0,0,1.067-34.133,86.4-68.267
	c0,0,59.733-26.667,165.333-26.667c106.667,1.067,166.4,26.667,166.4,26.667c86.4,34.133,86.4,68.267,86.4,68.267
	c1.067,6.4,1.067,11.733,1.067,16C507.733,140.8,506.667,149.333,506.667,155.733z"/>
<circle style="fill:#FFD15C;" cx="259.2" cy="312.533" r="101.333"/>
<g>
	<circle style="fill:#FFFFFF;" cx="259.2" cy="251.733" r="19.2"/>
	<circle style="fill:#FFFFFF;" cx="259.2" cy="373.333" r="19.2"/>
	<circle style="fill:#FFFFFF;" cx="302.933" cy="269.867" r="19.2"/>
	<circle style="fill:#FFFFFF;" cx="216.533" cy="356.267" r="19.2"/>
	<circle style="fill:#FFFFFF;" cx="321.067" cy="312.533" r="19.2"/>
	<circle style="fill:#FFFFFF;" cx="198.4" cy="312.533" r="19.2"/>
	<circle style="fill:#FFFFFF;" cx="216.533" cy="269.867" r="19.2"/>
</g>
<polygon style="fill:#40596B;" points="297.6,347.733 325.333,394.667 343.467,375.467 "/>
<g>
</g>
<g>
</g>
<g>
</g>
<g>
</g>
<g>
</g>
<g>
</g>
<g>
</g>
<g>
</g>
<g>
</g>
<g>
</g>
<g>
</g>
<g>
</g>
<g>
</g>
<g>
</g>
<g>
</g>
</svg>
