<?xml version="1.0" encoding="iso-8859-1"?>
<!-- Generator: Adobe Illustrator 19.0.0, SVG Export Plug-In . SVG Version: 6.00 Build 0)  -->
<svg version="1.1" id="Layer_1" xmlns="http://www.w3.org/2000/svg" xmlns:xlink="http://www.w3.org/1999/xlink" x="0px" y="0px"
	 viewBox="0 0 512 512" style="enable-background:new 0 0 512 512;" xml:space="preserve">
<linearGradient id="SVGID_1_" gradientUnits="userSpaceOnUse" x1="-29.9375" y1="613.3125" x2="-29.9375" y2="643.3125" gradientTransform="matrix(16 0 0 -16 735 10309)">
	<stop  offset="0" style="stop-color:#FFB533"/>
	<stop  offset="1" style="stop-color:#FFFF33"/>
</linearGradient>
<circle style="fill:url(#SVGID_1_);" cx="256" cy="256" r="240"/>
<path id="SVGCleanerId_0" style="fill:#CC7B29;" d="M256,0C114.608,0,0,114.608,0,256s114.608,255.984,256,256
	c141.392,0,255.984-114.608,256-256C511.984,114.608,397.392,0,256,0z M414.384,414.384c-40.576,40.56-96.48,65.6-158.384,65.616
	c-61.904-0.016-117.808-25.056-158.4-65.616C57.04,373.808,32,317.904,32,256S57.04,138.192,97.6,97.6
	C138.192,57.04,194.096,32,256,32s117.808,25.04,158.384,65.6c40.56,40.592,65.6,96.496,65.616,158.4
	C479.984,317.904,454.944,373.808,414.384,414.384z"/>
<g>
	<polyline style="fill:#805540;" points="96,224 192,224 192,192 96,192 	"/>
	<polyline style="fill:#805540;" points="320,224 416,224 416,192 320,192 	"/>
</g>
<ellipse style="fill:#FFFFFF;" cx="256" cy="368" rx="48" ry="64"/>
<path id="SVGCleanerId_1" style="fill:#806040;" d="M302.736,313.136C291.872,298.512,275.248,288,256,288
	c-19.264,0-35.872,10.512-46.736,25.136C198.256,327.856,192.032,347.088,192,368c0.032,20.912,6.256,40.128,17.264,54.848
	C220.128,437.488,236.736,448,256,448c19.248,0,35.872-10.512,46.736-25.136C313.728,408.128,319.968,388.912,320,368
	C319.968,347.088,313.728,327.856,302.736,313.136z M277.136,403.648C270.64,412.192,263.248,416,256,416
	c-7.248,0-14.64-3.808-21.136-12.352C228.48,395.216,223.968,382.432,224,368c-0.032-14.432,4.48-27.216,10.864-35.664
	C241.36,323.808,248.752,320,256,320c7.248,0,14.64,3.808,21.136,12.352C283.52,340.784,288.032,353.568,288,368
	C288.032,382.432,283.52,395.216,277.136,403.648z"/>
<path id="SVGCleanerId_2" style="fill:#33BBFF;" d="M160,224h-32v218.288c10.192,6.48,20.832,12.272,32,17.168V224z"/>
<path id="SVGCleanerId_3" style="fill:#33BBFF;" d="M352,224h32v218.288c-10.192,6.48-20.832,12.272-32,17.168V224z"/>
<linearGradient id="SVGID_2_" gradientUnits="userSpaceOnUse" x1="-29.9375" y1="613.3125" x2="-29.9375" y2="643.3125" gradientTransform="matrix(16 0 0 -16 735 10309)">
	<stop  offset="0" style="stop-color:#FFB533"/>
	<stop  offset="1" style="stop-color:#FFFF33"/>
</linearGradient>
<circle style="fill:url(#SVGID_2_);" cx="256" cy="256" r="240"/>
<linearGradient id="SVGID_3_" gradientUnits="userSpaceOnUse" x1="-29.938" y1="634.3125" x2="-29.938" y2="642.3125" gradientTransform="matrix(16 0 0 -16 735 10309)">
	<stop  offset="0" style="stop-color:#FAFBFB;stop-opacity:0"/>
	<stop  offset="1" style="stop-color:#FAFBFB"/>
</linearGradient>
<path style="fill:url(#SVGID_3_);" d="M256,32c-61.904,0-117.808,27.392-158.4,67.952C80.816,116.736,66.896,144,56.096,160h399.792
	c-10.8-16-24.72-43.248-41.504-60.048C373.808,59.392,317.904,32,256,32z"/>
<g>
	<path id="SVGCleanerId_0_1_" style="fill:#CC7B29;" d="M256,0C114.608,0,0,114.608,0,256s114.608,255.984,256,256
		c141.392,0,255.984-114.608,256-256C511.984,114.608,397.392,0,256,0z M414.384,414.384c-40.576,40.56-96.48,65.6-158.384,65.616
		c-61.904-0.016-117.808-25.056-158.4-65.616C57.04,373.808,32,317.904,32,256S57.04,138.192,97.6,97.6
		C138.192,57.04,194.096,32,256,32s117.808,25.04,158.384,65.6c40.56,40.592,65.6,96.496,65.616,158.4
		C479.984,317.904,454.944,373.808,414.384,414.384z"/>
</g>
<g>
	<polyline style="fill:#805540;" points="96,224 192,224 192,192 96,192 	"/>
	<polyline style="fill:#805540;" points="320,224 416,224 416,192 320,192 	"/>
</g>
<ellipse style="fill:#FFFFFF;" cx="256" cy="368" rx="48" ry="64"/>
<g>
	<path id="SVGCleanerId_1_1_" style="fill:#806040;" d="M302.736,313.136C291.872,298.512,275.248,288,256,288
		c-19.264,0-35.872,10.512-46.736,25.136C198.256,327.856,192.032,347.088,192,368c0.032,20.912,6.256,40.128,17.264,54.848
		C220.128,437.488,236.736,448,256,448c19.248,0,35.872-10.512,46.736-25.136C313.728,408.128,319.968,388.912,320,368
		C319.968,347.088,313.728,327.856,302.736,313.136z M277.136,403.648C270.64,412.192,263.248,416,256,416
		c-7.248,0-14.64-3.808-21.136-12.352C228.48,395.216,223.968,382.432,224,368c-0.032-14.432,4.48-27.216,10.864-35.664
		C241.36,323.808,248.752,320,256,320c7.248,0,14.64,3.808,21.136,12.352C283.52,340.784,288.032,353.568,288,368
		C288.032,382.432,283.52,395.216,277.136,403.648z"/>
</g>
<g>
	<path id="SVGCleanerId_2_1_" style="fill:#33BBFF;" d="M160,224h-32v218.288c10.192,6.48,20.832,12.272,32,17.168V224z"/>
</g>
<g>
	<path id="SVGCleanerId_3_1_" style="fill:#33BBFF;" d="M352,224h32v218.288c-10.192,6.48-20.832,12.272-32,17.168V224z"/>
</g>
<g>
</g>
<g>
</g>
<g>
</g>
<g>
</g>
<g>
</g>
<g>
</g>
<g>
</g>
<g>
</g>
<g>
</g>
<g>
</g>
<g>
</g>
<g>
</g>
<g>
</g>
<g>
</g>
<g>
</g>
</svg>
