<?xml version="1.0" encoding="iso-8859-1"?>
<!-- Generator: Adobe Illustrator 19.0.0, SVG Export Plug-In . SVG Version: 6.00 Build 0)  -->
<svg version="1.1" id="Layer_1" xmlns="http://www.w3.org/2000/svg" xmlns:xlink="http://www.w3.org/1999/xlink" x="0px" y="0px"
	 viewBox="0 0 512.042 512.042" style="enable-background:new 0 0 512.042 512.042;" xml:space="preserve">
<rect x="25.181" y="132.154" style="fill:#28C7DD;" width="461.68" height="113.12"/>
<polyline style="fill:#25B6D2;" points="440.317,245.258 440.317,512.042 71.709,512.042 71.709,245.258 "/>
<g>
	<path style="fill:#E04F5F;" d="M293.917,123.13c-11.232,0-22.976-1.184-35.072-3.776l-14.48-3.088l1.968-14.688
		c0.32-2.304,8.032-56.672,45.984-84.944c19.104-14.24,42.048-19.424,68.224-15.216c31.008,4.896,42.496,19.664,46.688,31.2
		c5.68,15.632,0.848,33.872-13.28,50.096C374.813,104.682,338.413,123.13,293.917,123.13z M281.645,90.538
		c40.112,3.664,72.96-11.376,88.176-28.848c5.968-6.864,8.864-13.984,7.344-18.144c-1.328-3.664-7.696-8.336-21.632-10.544
		c-17.504-2.768-31.968,0.272-44.112,9.296C294.765,54.714,285.933,76.042,281.645,90.538z"/>
	<path style="fill:#E04F5F;" d="M218.093,123.13c-44.464,0-80.88-18.448-100.016-40.416c-14.128-16.224-18.976-34.464-13.28-50.096
		c4.192-11.536,15.68-26.32,46.688-31.2c26.08-4.192,49.104,0.976,68.24,15.232c37.952,28.272,45.664,82.624,45.968,84.928
		l1.968,14.688l-14.48,3.088C241.069,121.946,229.325,123.13,218.093,123.13z M168.509,32.026c-3.84,0-7.84,0.336-12.016,0.992
		c-13.92,2.192-20.304,6.88-21.632,10.544c-1.504,4.16,1.376,11.28,7.36,18.144c15.2,17.472,48.064,32.576,88.208,28.832
		c-4.288-14.496-13.088-35.824-29.92-48.304C191.277,35.402,180.733,32.026,168.509,32.026z"/>
	<rect x="214.797" y="113.322" style="fill:#E04F5F;" width="82.448" height="397.264"/>
</g>
<g>
</g>
<g>
</g>
<g>
</g>
<g>
</g>
<g>
</g>
<g>
</g>
<g>
</g>
<g>
</g>
<g>
</g>
<g>
</g>
<g>
</g>
<g>
</g>
<g>
</g>
<g>
</g>
<g>
</g>
</svg>
